<svg width="14" height="13" viewBox="0 0 14 13" fill="none" xmlns="http://www.w3.org/2000/svg">
    <path fill-rule="evenodd" clip-rule="evenodd" d="M13.4 6.60344C13.4 7.03626 13.3559 7.46847 13.2694 7.88979C13.185 8.30109 13.06 8.7049 12.8962 9.09091C12.7362 9.4701 12.5378 9.83551 12.3059 10.1763C12.0774 10.5149 11.8143 10.8326 11.5252 11.1222C11.2355 11.4105 10.9167 11.6729 10.5783 11.9023C10.2364 12.1326 9.87047 12.3308 9.49106 12.4915C9.10448 12.6544 8.69975 12.7792 8.2888 12.8635C7.86693 12.9502 7.43313 12.9945 6.99969 12.9945C6.56592 12.9945 6.13215 12.9502 5.71088 12.8635C5.2993 12.7792 4.89459 12.6544 4.50832 12.4915C4.12893 12.3308 3.76264 12.1326 3.42076 11.9023C3.0823 11.6729 2.76354 11.4105 2.47446 11.1222C2.18508 10.8326 1.92193 10.5149 1.69317 10.1763C1.46253 9.83551 1.26376 9.47008 1.10313 9.09091C0.939356 8.7049 0.814055 8.30107 0.72936 7.88979C0.643738 7.46847 0.599976 7.03626 0.599976 6.60344C0.599976 6.17029 0.643713 5.73715 0.729385 5.31676C0.81408 4.90546 0.939381 4.50103 1.10316 4.11564C1.26378 3.73617 1.46256 3.37044 1.69319 3.02965C1.92195 2.69076 2.18511 2.37368 2.47449 2.08377C2.76357 1.7954 3.08233 1.53361 3.42078 1.30455C3.76267 1.0733 4.12895 0.875159 4.50834 0.714119C4.89462 0.550877 5.2993 0.425756 5.7109 0.342134C6.13217 0.25601 6.56594 0.212311 6.99971 0.212311C7.43316 0.212311 7.86693 0.25601 8.28882 0.342134C8.69977 0.425781 9.10448 0.550902 9.49109 0.714119C9.87047 0.875134 10.2364 1.0733 10.5783 1.30455C10.9168 1.53361 11.2356 1.7954 11.5252 2.08377C11.8143 2.37368 12.0775 2.69076 12.3059 3.02965C12.5378 3.37044 12.7362 3.7362 12.8962 4.11564C13.06 4.50103 13.185 4.90546 13.2694 5.31676C13.3559 5.73715 13.4 6.17029 13.4 6.60344ZM4.66766 1.66685C3.14351 2.38555 2.00595 3.78797 1.65124 5.47812C1.79533 5.47937 4.07295 5.50809 6.69713 4.81184C5.75116 3.13355 4.74049 1.76393 4.66766 1.66685ZM7.14997 5.65227C4.33577 6.49357 1.6353 6.43304 1.53844 6.42931C1.53686 6.48797 1.53405 6.54475 1.53405 6.60343C1.53405 8.00552 2.06376 9.28374 2.93444 10.2502C2.93256 10.2474 4.42828 7.59767 7.3778 6.64525C7.44904 6.62154 7.52156 6.6003 7.59343 6.57972C7.45626 6.26954 7.30653 5.95872 7.14997 5.65227ZM10.6092 2.50725C9.64698 1.65997 8.3835 1.14603 6.99967 1.14603C6.55558 1.14603 6.12461 1.19971 5.71179 1.29894C5.79365 1.40881 6.82028 2.76877 7.75501 4.48261C9.81732 3.71058 10.5958 2.52721 10.6092 2.50725ZM7.96599 7.48408C7.95382 7.48811 7.94165 7.49159 7.92975 7.49594C4.70494 8.61853 3.65184 10.8809 3.64045 10.9056C4.56833 11.6261 5.73214 12.0608 6.99971 12.0608C7.7566 12.0608 8.47757 11.9069 9.13354 11.6283C9.0526 11.1515 8.73509 9.48006 7.96599 7.48408ZM10.0539 11.1296C11.2811 10.3027 12.1527 8.98951 12.3959 7.46845C12.2834 7.43225 10.7542 6.94886 8.99006 7.23129C9.70697 9.19857 9.99825 10.8007 10.0539 11.1296ZM8.1757 5.29587C8.30256 5.55614 8.4254 5.82104 8.53883 6.08727C8.57916 6.18277 8.61854 6.2764 8.65697 6.37C10.5346 6.13407 12.3843 6.53101 12.4634 6.54722C12.4509 5.25342 11.9874 4.066 11.2206 3.13638C11.2102 3.15101 10.3336 4.41582 8.1757 5.29587Z" fill="white"/>
</svg>
