<svg width="14" height="14" viewBox="0 0 14 14" fill="none" xmlns="http://www.w3.org/2000/svg">
<path fill-rule="evenodd" clip-rule="evenodd" d="M7.00058 0.212311C5.26242 0.212311 5.04429 0.219911 4.36161 0.250978C3.68027 0.282178 3.2152 0.390046 2.80827 0.548314C2.38733 0.711783 2.03026 0.930452 1.67452 1.28632C1.31852 1.64206 1.09985 1.99913 0.935846 2.41993C0.777177 2.827 0.669176 3.29221 0.638509 3.97328C0.607976 4.65596 0.599976 4.87423 0.599976 6.61238C0.599976 8.35053 0.607709 8.568 0.638643 9.25067C0.669976 9.93201 0.777844 10.3971 0.935979 10.804C1.09958 11.225 1.31825 11.582 1.67412 11.9378C2.02972 12.2938 2.38679 12.513 2.80747 12.6764C3.21467 12.8347 3.67987 12.9426 4.36108 12.9738C5.04376 13.0048 5.26176 13.0124 6.99978 13.0124C8.73806 13.0124 8.95553 13.0048 9.6382 12.9738C10.3195 12.9426 10.7851 12.8347 11.1924 12.6764C11.6132 12.513 11.9697 12.2938 12.3253 11.9378C12.6813 11.582 12.9 11.225 13.064 10.8042C13.2213 10.3971 13.3293 9.93188 13.3613 9.2508C13.392 8.56813 13.4 8.35053 13.4 6.61238C13.4 4.87423 13.392 4.65609 13.3613 3.97342C13.3293 3.29208 13.2213 2.827 13.064 2.42007C12.9 1.99913 12.6813 1.64206 12.3253 1.28632C11.9693 0.930318 11.6133 0.711649 11.192 0.548314C10.7839 0.390046 10.3186 0.282178 9.63727 0.250978C8.9546 0.219911 8.73726 0.212311 6.99858 0.212311H7.00058ZM6.42641 1.36564C6.59681 1.36537 6.78695 1.36564 7.00055 1.36564C8.70937 1.36564 8.9119 1.37177 9.58671 1.40244C10.2107 1.43097 10.5494 1.53524 10.775 1.62284C11.0737 1.73884 11.2866 1.87751 11.5105 2.10151C11.7345 2.32551 11.8731 2.53885 11.9894 2.83752C12.077 3.06286 12.1814 3.40153 12.2098 4.02553C12.2405 4.70021 12.2471 4.90288 12.2471 6.61089C12.2471 8.31891 12.2405 8.52158 12.2098 9.19625C12.1813 9.82026 12.077 10.1589 11.9894 10.3843C11.8734 10.6829 11.7345 10.8956 11.5105 11.1195C11.2865 11.3435 11.0738 11.4821 10.775 11.5981C10.5497 11.6861 10.2107 11.7901 9.58671 11.8187C8.91203 11.8493 8.70937 11.856 7.00055 11.856C5.2916 11.856 5.08906 11.8493 4.41439 11.8187C3.79038 11.7899 3.45171 11.6856 3.22598 11.598C2.92731 11.482 2.71397 11.3433 2.48997 11.1193C2.26597 10.8953 2.1273 10.6825 2.01103 10.3837C1.92343 10.1584 1.81903 9.81973 1.79063 9.19572C1.75996 8.52105 1.75383 8.31838 1.75383 6.60929C1.75383 4.90021 1.75996 4.69861 1.79063 4.02393C1.81916 3.39993 1.92343 3.06126 2.01103 2.83565C2.12703 2.53698 2.26597 2.32365 2.48997 2.09965C2.71397 1.87564 2.92731 1.73698 3.22598 1.62071C3.45158 1.53271 3.79038 1.42871 4.41439 1.40004C5.00479 1.37337 5.2336 1.36537 6.42641 1.36404V1.36564ZM10.4169 2.42832C9.99285 2.42832 9.64885 2.77192 9.64885 3.19606C9.64885 3.62006 9.99285 3.96407 10.4169 3.96407C10.8409 3.96407 11.1849 3.62006 11.1849 3.19606C11.1849 2.77206 10.8409 2.42832 10.4169 2.42832ZM7.00059 3.32566C5.1855 3.32566 3.71389 4.79727 3.71389 6.61236C3.71389 8.42745 5.1855 9.89839 7.00059 9.89839C8.81567 9.89839 10.2868 8.42745 10.2868 6.61236C10.2868 4.79727 8.81567 3.32566 7.00059 3.32566ZM7.00056 4.479C8.17871 4.479 9.13392 5.43408 9.13392 6.61236C9.13392 7.79051 8.17871 8.74572 7.00056 8.74572C5.82228 8.74572 4.86721 7.79051 4.86721 6.61236C4.86721 5.43408 5.82228 4.479 7.00056 4.479Z" fill="white"/>
</svg>
