<svg width="12" height="11" viewBox="0 0 12 11" fill="none" xmlns="http://www.w3.org/2000/svg">
<path fill-rule="evenodd" clip-rule="evenodd" d="M5.6406 3.36607L5.66578 3.78129L5.2461 3.73045C3.71843 3.53555 2.38383 2.87457 1.25067 1.76448L0.696681 1.21367L0.553988 1.62042C0.251813 2.52714 0.444869 3.4847 1.0744 4.12873C1.41015 4.48464 1.33461 4.53548 0.755438 4.32363C0.553988 4.25584 0.377719 4.205 0.360931 4.23042C0.302175 4.28974 0.503625 5.06087 0.663106 5.36594C0.881344 5.78964 1.32621 6.20486 1.81305 6.45061L2.22434 6.64551L1.73751 6.65399C1.26746 6.65399 1.25067 6.66246 1.30103 6.84042C1.46891 7.39123 2.13201 7.97594 2.87066 8.23016L3.39108 8.40811L2.93781 8.67928C2.26631 9.06908 1.4773 9.28941 0.688288 9.30636C0.310569 9.31483 0 9.34873 0 9.37415C0 9.45889 1.02404 9.93343 1.61999 10.1199C3.40786 10.6707 5.53148 10.4334 7.1263 9.49279C8.25945 8.82334 9.39261 7.49292 9.92142 6.20486C10.2068 5.51847 10.4922 4.26431 10.4922 3.66266C10.4922 3.27285 10.5174 3.22201 10.9874 2.75594C11.2644 2.48477 11.5246 2.18818 11.575 2.10344C11.6589 1.94243 11.6505 1.94243 11.2224 2.08649C10.509 2.34071 10.4083 2.30681 10.7608 1.92548C11.021 1.65431 11.3316 1.16282 11.3316 1.01876C11.3316 0.993341 11.2057 1.03571 11.063 1.11198C10.9119 1.19672 10.5761 1.32383 10.3243 1.40009L9.87105 1.54415L9.45976 1.26451C9.23313 1.11198 8.91417 0.942497 8.74629 0.891653C8.31821 0.773017 7.6635 0.789965 7.27738 0.925549C6.22816 1.30688 5.56506 2.28987 5.6406 3.36607Z" fill="white"/>
</svg>
