<svg width="16" height="17" viewBox="0 0 16 17" fill="none" xmlns="http://www.w3.org/2000/svg">
<path d="M7.67733 2.06592C4.13733 2.23259 1.34466 5.15926 1.35533 8.67726C1.35709 9.71279 1.60501 10.7331 2.07866 11.6539L1.37333 15.0546C1.36473 15.0971 1.36698 15.1411 1.37988 15.1825C1.39279 15.2239 1.41593 15.2614 1.44716 15.2915C1.47839 15.3216 1.51671 15.3434 1.55858 15.3548C1.60044 15.3661 1.64449 15.3668 1.68666 15.3566L5.04267 14.5673C5.93152 15.0065 6.9073 15.2416 7.89866 15.2553C11.5167 15.3106 14.5327 12.4586 14.6453 8.86859C14.7667 5.01859 11.5673 1.88126 7.67733 2.06526V2.06592ZM11.682 12.3106C11.1983 12.7925 10.6243 13.1743 9.99281 13.434C9.36132 13.6937 8.68479 13.8262 8.002 13.8239C7.19867 13.8264 6.40579 13.642 5.686 13.2853L5.21866 13.0539L3.16066 13.5379L3.594 11.4506L3.36333 11.0026C2.9894 10.2778 2.79549 9.47353 2.798 8.65792C2.798 7.27792 3.33933 5.97992 4.322 5.00459C5.30146 4.03506 6.62383 3.49102 8.002 3.49059C9.39266 3.49059 10.6993 4.02792 11.682 5.00392C12.1661 5.48102 12.5503 6.04982 12.8121 6.6771C13.0739 7.30438 13.208 7.97755 13.2067 8.65726C13.2067 10.0253 12.6567 11.3439 11.682 12.3113V12.3106Z" fill="white"/>
<path d="M11.228 10.0879L9.94066 9.72125C9.85759 9.69741 9.76963 9.69634 9.68601 9.71815C9.60238 9.73997 9.52616 9.78387 9.46532 9.84525L9.15066 10.1639C9.08555 10.2299 9.00245 10.2752 8.91174 10.2941C8.82103 10.3131 8.72674 10.3049 8.64066 10.2706C8.03199 10.0259 6.75066 8.89525 6.42332 8.32925C6.37744 8.24931 6.35648 8.15748 6.36313 8.06555C6.36978 7.97361 6.40374 7.88576 6.46066 7.81325L6.73532 7.45992C6.7882 7.39222 6.82166 7.31141 6.83211 7.22615C6.84256 7.14089 6.82962 7.05439 6.79466 6.97592L6.25332 5.75992C6.22271 5.69195 6.17674 5.63202 6.11905 5.58482C6.06135 5.53762 5.99349 5.50445 5.9208 5.48791C5.84812 5.47137 5.77259 5.47191 5.70015 5.4895C5.62771 5.50708 5.56034 5.54123 5.50332 5.58925C5.14399 5.89125 4.71732 6.34925 4.66599 6.85792C4.57466 7.75325 4.96132 8.88192 6.42399 10.2379C8.11399 11.8039 9.46799 12.0113 10.3487 11.7986C10.8487 11.6786 11.2487 11.1966 11.5 10.8026C11.5402 10.74 11.5651 10.6689 11.5728 10.5949C11.5805 10.5209 11.5707 10.4461 11.5443 10.3766C11.5178 10.3071 11.4754 10.2448 11.4205 10.1946C11.3656 10.1445 11.2996 10.1079 11.228 10.0879Z" fill="white"/>
</svg>
