<svg width="14" height="10" viewBox="0 0 14 10" fill="none" xmlns="http://www.w3.org/2000/svg">
<path fill-rule="evenodd" clip-rule="evenodd" d="M12.0008 0.487006C12.5515 0.638138 12.9853 1.08345 13.1325 1.64895C13.4 2.67386 13.4 4.81234 13.4 4.81234C13.4 4.81234 13.4 6.95075 13.1325 7.97573C12.9853 8.54123 12.5515 8.98654 12.0008 9.13775C11.0027 9.41234 6.99998 9.41234 6.99998 9.41234C6.99998 9.41234 2.99728 9.41234 1.9991 9.13775C1.44834 8.98654 1.01459 8.54123 0.867394 7.97573C0.599976 6.95075 0.599976 4.81234 0.599976 4.81234C0.599976 4.81234 0.599976 2.67386 0.867394 1.64895C1.01459 1.08345 1.44834 0.638138 1.9991 0.487006C2.99728 0.212341 6.99998 0.212341 6.99998 0.212341C6.99998 0.212341 11.0027 0.212341 12.0008 0.487006ZM5.79999 3.0123V7.0123L8.99999 5.01238L5.79999 3.0123Z" fill="white"/>
</svg>
